<svg xmlns="http://www.w3.org/2000/svg" width="277" height="64.49866417118275" viewBox="0 0 277 64.49866417118275" class="editor-view__logo-preview" data-v-8d8ae3dd="" data-v-b9d2a614=""><svg id="mark" viewBox="0 0 512 512" width="54" height="54" x="0" y="5.2493320855913765" data-v-8d8ae3dd="" style="fill: rgb(207, 63, 63);"><rect x="0" y="0" width="100%" height="100%" fill="none" data-v-8d8ae3dd=""></rect><g data-v-8d8ae3dd="">
<path xmlns="http://www.w3.org/2000/svg" d="M0 0 C47.3551785 -1.04551243 92.87202015 7.80848188 134.84716797 30.078125 C135.56614258 30.45163086 136.28511719 30.82513672 137.02587891 31.20996094 C148.48855283 37.18248648 158.72327646 44.06095604 168.84716797 52.078125 C170.23162109 53.14353516 170.23162109 53.14353516 171.64404297 54.23046875 C186.49785411 65.79657329 200.27934593 79.23445956 211.84716797 94.078125 C212.64767578 95.08488281 213.44818359 96.09164062 214.27294922 97.12890625 C242.43331712 132.79723776 265.57577948 180.26073479 266.04003906 226.57617188 C266.04821655 227.29127426 266.05639404 228.00637665 266.06481934 228.7431488 C266.08948313 231.09438298 266.10615596 233.44555677 266.12060547 235.796875 C266.12859098 237.01844551 266.12859098 237.01844551 266.13673782 238.26469421 C266.16340964 242.5900274 266.18278846 246.91533257 266.19726562 251.24072266 C266.21049073 254.77061537 266.2381364 258.29991425 266.27929688 261.82958984 C266.50358985 281.51802276 266.43542469 300.01026561 260.84716797 319.078125 C260.54810547 320.23747559 260.24904297 321.39682617 259.94091797 322.59130859 C259.24516869 325.25879347 258.48207898 327.88485027 257.65966797 330.515625 C257.37124023 331.44552246 257.0828125 332.37541992 256.78564453 333.33349609 C245.53025374 368.50512218 226.98752428 401.59692517 201.93701172 428.8046875 C199.98845382 430.92442712 198.09959464 433.08295969 196.22216797 435.265625 C161.90362411 474.55444072 109.75788348 500.27725631 58.84716797 509.078125 C57.83272614 509.26234512 57.83272614 509.26234512 56.79779053 509.45028687 C42.28675767 512.03237714 28.00348143 512.57596748 13.28320312 512.52416992 C9.61514922 512.51566668 5.94866305 512.54453935 2.28076172 512.57617188 C-57.43133645 512.75181409 -118.53537619 490.33568118 -162.15283203 449.078125 C-163.52264725 447.88464793 -164.8974742 446.69689276 -166.27783203 445.515625 C-173.12413466 439.53716355 -179.27446161 432.99884564 -185.15283203 426.078125 C-186.26078125 424.80388672 -186.26078125 424.80388672 -187.39111328 423.50390625 C-212.01913247 394.71229849 -229.73946643 360.11006895 -239.46533203 323.515625 C-239.79235107 322.29915283 -239.79235107 322.29915283 -240.12597656 321.05810547 C-240.8752338 318.07765046 -241.51886999 315.08539681 -242.15283203 312.078125 C-242.31692566 311.34900909 -242.48101929 310.61989319 -242.65008545 309.86868286 C-246.31288572 293.28779025 -246.78041721 276.9281854 -246.67431641 260.03588867 C-246.65154854 256.3775811 -246.66506602 252.72043954 -246.68809128 249.06217194 C-246.78040497 231.72666105 -245.84156444 215.09247134 -242.15283203 198.078125 C-241.95881302 197.17771988 -241.76479401 196.27731476 -241.56489563 195.34962463 C-234.97972265 165.2583134 -222.22311766 135.11239593 -204.15283203 110.078125 C-203.6763623 109.41071289 -203.19989258 108.74330078 -202.70898438 108.05566406 C-187.58037087 86.99025363 -170.20478958 67.37434595 -149.15283203 52.078125 C-148.49847168 51.59537109 -147.84411133 51.11261719 -147.16992188 50.61523438 C-104.17062949 18.97750237 -53.49141522 1.32548032 0 0 Z M-149.41845703 75.703125 C-151.23505213 77.2809676 -153.10115159 78.80361537 -155.01220703 80.265625 C-155.71861328 80.86375 -156.42501953 81.461875 -157.15283203 82.078125 C-157.15283203 82.738125 -157.15283203 83.398125 -157.15283203 84.078125 C-158.04796509 84.4807959 -158.04796509 84.4807959 -158.96118164 84.89160156 C-161.17037234 86.08762104 -162.51119058 87.2397679 -164.21923828 89.0625 C-164.7815918 89.660625 -165.34394531 90.25875 -165.92333984 90.875 C-166.51469727 91.51953125 -167.10605469 92.1640625 -167.71533203 92.828125 C-168.33375977 93.4984375 -168.9521875 94.16875 -169.58935547 94.859375 C-179.58592165 105.81903128 -188.20382541 117.5680381 -196.15283203 130.078125 C-196.75611328 131.01527344 -197.35939453 131.95242187 -197.98095703 132.91796875 C-214.07265956 159.12338151 -223.63484734 189.82998356 -228.15283203 220.078125 C-228.34546631 221.3141748 -228.34546631 221.3141748 -228.54199219 222.57519531 C-232.09333026 246.20773593 -230.80747615 270.55364225 -227.15283203 294.078125 C-226.99717773 295.09261719 -226.84152344 296.10710937 -226.68115234 297.15234375 C-220.65251515 334.74408542 -205.78043258 371.13522914 -182.15283203 401.078125 C-181.39357422 402.04878906 -180.63431641 403.01945312 -179.85205078 404.01953125 C-168.07701004 418.72264607 -154.97814061 432.44564694 -140.15283203 444.078125 C-139.20279297 444.85671875 -138.25275391 445.6353125 -137.27392578 446.4375 C-97.85256032 478.05514688 -46.42951917 494.46740607 3.84716797 494.078125 C3.85747543 493.31424469 3.8677829 492.55036438 3.87840271 491.76333618 C4.00975137 482.07654035 4.14554868 472.3898122 4.28466797 462.703125 C4.2956892 461.93439182 4.30671043 461.16565865 4.31806564 460.37363052 C4.59332578 441.24538874 4.86905695 422.11977441 5.54223633 403.00048828 C5.82094609 395.02277169 5.89473246 387.06065446 5.84716797 379.078125 C6.83716797 379.408125 7.82716797 379.738125 8.84716797 380.078125 C11.48521386 379.68415165 11.48521386 379.68415165 13.84716797 379.078125 C14.89460056 402.48923668 15.14632561 425.8999778 15.37939453 449.33062744 C15.43052861 454.39362299 15.48572412 459.45657432 15.54052734 464.51953125 C15.64660452 474.37235767 15.74835318 484.22522324 15.84716797 494.078125 C37.98706999 494.237387 59.57905238 491.19559464 80.84716797 485.078125 C81.84022949 484.79340332 82.83329102 484.50868164 83.85644531 484.21533203 C117.23120651 474.3966716 146.87608753 457.31062214 172.17919922 433.55859375 C174.37692641 431.51531884 176.61057861 429.56663698 178.90966797 427.640625 C221.65787105 390.25793712 246.28793439 329.13096495 250.38232422 273.5559082 C250.94505998 264.71260368 251.22135493 255.93327749 250.84716797 247.078125 C250.81139648 246.21912598 250.775625 245.36012695 250.73876953 244.47509766 C248.40780106 196.52010035 232.97214445 147.26065229 201.84716797 110.078125 C201.17041016 109.26142334 201.17041016 109.26142334 200.47998047 108.42822266 C197.3118433 104.60698539 194.09156144 100.83479112 190.84716797 97.078125 C190.12400391 96.22992188 189.40083984 95.38171875 188.65576172 94.5078125 C185.01806276 90.30772956 181.26221779 86.51917766 177.01513672 82.9375 C174.55411389 80.82678493 172.21098307 78.60957251 169.84716797 76.390625 C157.63598848 65.30482244 144.10470719 56.30601533 129.84716797 48.078125 C129.20956543 47.70703613 128.57196289 47.33594727 127.91503906 46.95361328 C97.43196326 29.38311331 60.06780664 18.76613813 24.81982422 19.03125 C23.51760925 19.03632568 23.51760925 19.03632568 22.18908691 19.04150391 C20.07509672 19.0502364 17.96112687 19.06368338 15.84716797 19.078125 C12.30230397 45.57180312 12.30230397 45.57180312 20.90576172 69.34594727 C21.97430079 70.58185781 23.05612427 71.80638857 24.14990234 73.02001953 C27.53905095 77.12970347 30.02889783 81.83755746 32.65966797 86.453125 C33.24611084 87.46439453 33.83255371 88.47566406 34.43676758 89.51757812 C41.3310534 101.48353324 47.65364467 113.7380812 53.84716797 126.078125 C54.64815918 127.66608887 54.64815918 127.66608887 55.46533203 129.28613281 C71.52638642 161.29884741 83.35152372 193.15201548 83.15966797 229.328125 C83.15693375 230.40646606 83.15693375 230.40646606 83.15414429 231.5065918 C83.10562646 242.91191637 82.51590067 253.95402758 79.84716797 265.078125 C79.68087891 265.79274902 79.51458984 266.50737305 79.34326172 267.24365234 C75.33987457 283.86882952 67.34700989 298.00428511 57.84716797 312.078125 C58.00572266 311.26085937 58.16427734 310.44359375 58.32763672 309.6015625 C61.20343926 290.09799937 57.07411148 270.37303489 45.53369141 254.2421875 C39.61079152 246.57381111 32.67397812 239.87920996 25.73657227 233.14526367 C20.79741351 228.25619921 17.27161528 223.138573 13.84716797 217.078125 C12.74094693 215.76738964 12.74094693 215.76738964 9.98388672 215.71875 C6.75704565 215.73148354 6.75704565 215.73148354 5.11669922 218.0625 C4.63587891 218.97515625 4.15505859 219.8878125 3.65966797 220.828125 C-1.11553507 229.01717934 -7.65430703 235.50959196 -14.24658203 242.234375 C-29.56725637 258.0563393 -38.03660332 276.87844077 -38.15283203 299.078125 C-37.78104895 303.7869937 -37.00666548 308.43496458 -36.15283203 313.078125 C-61.09397825 274.64422755 -68.52349667 234.93630081 -59.02587891 189.5546875 C-55.14732369 172.67957008 -48.96332718 156.5144546 -41.50878906 140.92236328 C-39.97299246 137.7008958 -38.46828765 134.46556711 -36.96142578 131.23046875 C-29.50679643 115.32987386 -21.29307563 100.08882143 -12.15283203 85.078125 C-11.10330925 83.34247429 -10.0538286 81.6067981 -9.00439453 79.87109375 C-7.19700961 76.89281848 -5.38281241 73.91901705 -3.55517578 70.953125 C-3.18733475 70.34732101 -2.81949371 69.74151703 -2.44050598 69.11735535 C-1.61751835 67.81402747 -0.75395926 66.53491904 0.15835571 65.29248047 C3.95775204 59.92875194 4.53071804 55.80167702 4.33544922 49.328125 C4.32837448 48.42940674 4.32129974 47.53068848 4.31401062 46.60473633 C4.28623886 43.76165054 4.22353581 40.92060558 4.15966797 38.078125 C4.13456272 36.13935156 4.11175347 34.20054694 4.09130859 32.26171875 C4.03646905 27.53307951 3.9503193 22.80594706 3.84716797 18.078125 C-52.46639066 18.078125 -107.04378618 38.81740115 -149.41845703 75.703125 Z " fill="inherit" transform="translate(246.15283203125,-0.078125)"></path>
<path xmlns="http://www.w3.org/2000/svg" d="M0 0 C3.0082862 0.88191016 5.82632226 2.03681165 8.6875 3.3125 C9.88258179 3.83166992 9.88258179 3.83166992 11.10180664 4.36132812 C25.98555388 10.96805736 40.83761984 18.35515247 54 28 C54.68578125 28.43441406 55.3715625 28.86882812 56.078125 29.31640625 C57.8125 30.5 57.8125 30.5 60 33 C59.80701784 34.80839462 59.59663125 36.61602803 59.31713867 38.41308594 C57.3122706 54.76688279 57.97006549 73.01423105 62 89 C62.19867676 89.79519043 62.39735352 90.59038086 62.60205078 91.40966797 C72.20281262 128.5829548 97.8919184 161.66897196 129.29296875 183.6015625 C130.13794922 184.29378906 130.13794922 184.29378906 131 185 C131 185.66 131 186.32 131 187 C123.00118966 185.85768002 115.48365078 184.14341034 107.8125 181.62109375 C106.27770996 181.12465111 106.27770996 181.12465111 104.71191406 180.61817932 C102.55929654 179.91897794 100.40810174 179.21538232 98.25830078 178.50756836 C95.04004207 177.45065034 91.81550947 176.4149162 88.58984375 175.38085938 C41.77051602 160.18369249 10.14459547 134.60337628 -16.92578125 93.6328125 C-24.85377003 81.65397141 -32.82233681 70.19392144 -43 60 C-43.60070312 59.38769531 -44.20140625 58.77539062 -44.8203125 58.14453125 C-52.75347804 50.6904216 -62.63613989 47.45337989 -73.1640625 45.640625 C-76 45 -76 45 -78 43 C-77.53846154 36.53846154 -77.53846154 36.53846154 -75 34 C-62.44925782 29.63648679 -45.60297686 31.87946408 -32.5 31.9375 C-30.50130322 31.94253 -28.50260519 31.94709023 -26.50390625 31.95117188 C-21.66923949 31.96204716 -16.83463395 31.97922718 -12 32 C-12.41572266 30.89591797 -12.41572266 30.89591797 -12.83984375 29.76953125 C-13.20207031 28.79371094 -13.56429687 27.81789062 -13.9375 26.8125 C-14.47697266 25.36810547 -14.47697266 25.36810547 -15.02734375 23.89453125 C-17.16495301 17.53321212 -18.49788981 10.44514655 -15.75 4.125 C-10.8962345 -1.76885811 -7.11304366 -1.43691163 0 0 Z " fill="inherit" transform="translate(115,175)"></path>
<path xmlns="http://www.w3.org/2000/svg" d="M0 0 C3.22695741 2.66574742 5.76330295 4.86972658 6.23828125 9.14453125 C6.47081717 17.50358575 4.76095312 25.47809376 1 33 C2.25433838 32.99476318 3.50867676 32.98952637 4.80102539 32.98413086 C9.52562729 32.96581302 14.25022617 32.95447173 18.97485352 32.94506836 C21.00643443 32.9400886 23.03801186 32.93330238 25.06958008 32.92456055 C60.88031504 32.77450324 60.88031504 32.77450324 67 37 C68.0625 40 68.0625 40 68 43 C66 46 66 46 62.40234375 46.7734375 C60.91499584 46.98076783 59.42663351 47.18090962 57.9375 47.375 C48.16397976 48.8807387 41.65282419 52.06578911 34.41015625 58.86328125 C33 60 33 60 31 60 C30.75121094 60.57234375 30.50242187 61.1446875 30.24609375 61.734375 C28.81547366 64.33550243 27.12599638 66.11560591 25.0625 68.25 C17.86851695 76.10112573 12.2505618 85.07852498 6.39453125 93.94140625 C1.17755591 101.83316121 -4.18741108 109.52667138 -10 117 C-10.66 117.86625 -11.32 118.7325 -12 119.625 C-34.81637409 148.66402157 -61.56834684 163.35843071 -96 175 C-98.41424457 175.83019989 -100.82830943 176.66092257 -103.2421875 177.4921875 C-137.2579232 189.11624452 -137.2579232 189.11624452 -143 187 C-138.18111894 182.5707306 -133.35043137 178.21441691 -128.1875 174.1875 C-112.61649857 161.86249103 -99.3224619 147.99269681 -89 131 C-88.63777344 130.40880371 -88.27554688 129.81760742 -87.90234375 129.20849609 C-76.83891266 110.82217589 -69.88570772 87.78014536 -69.8671875 66.30859375 C-69.86575241 65.24609154 -69.86575241 65.24609154 -69.86428833 64.16212463 C-69.86361239 62.67554637 -69.86542544 61.18896505 -69.86962891 59.70239258 C-69.8749936 57.440199 -69.86965983 55.1782032 -69.86328125 52.91601562 C-69.86394198 51.46354123 -69.86522304 50.01106696 -69.8671875 48.55859375 C-69.86887939 46.59877563 -69.86887939 46.59877563 -69.87060547 44.59936523 C-69.89731286 41.02855754 -69.89731286 41.02855754 -70.68652344 37.71459961 C-71 35 -71 35 -69.89599609 33.31689453 C-69.31930176 32.88489746 -68.74260742 32.45290039 -68.1484375 32.0078125 C-67.49584961 31.5118457 -66.84326172 31.01587891 -66.17089844 30.50488281 C-65.09630371 29.75996582 -65.09630371 29.75996582 -64 29 C-63.29133789 28.5059668 -62.58267578 28.01193359 -61.85253906 27.50292969 C-59.47370259 25.90637436 -57.06190671 24.38140497 -54.625 22.875 C-53.72668457 22.31949463 -52.82836914 21.76398926 -51.90283203 21.19165039 C-12.98763267 -2.33777388 -12.98763267 -2.33777388 0 0 Z " fill="inherit" transform="translate(409,174)"></path>
<path xmlns="http://www.w3.org/2000/svg" d="M0 0 C3.54964287 2.77045297 6.58011164 5.56636737 9.5 9 C11.59003932 11.45671288 13.50190289 13.41825241 16 15.5 C19.80031304 18.66692753 22.82839795 22.21950388 26 26 C26.65226562 26.71800781 27.30453125 27.43601562 27.9765625 28.17578125 C38.60302639 40.38185463 43.5661118 55.64965473 43.24609375 71.70703125 C42.22740642 85.33803788 36.81857463 97.13027546 26.91015625 106.515625 C24.258677 108.7791697 21.54838348 110.87092212 18.75683594 112.95361328 C18.15645508 113.4020459 17.55607422 113.85047852 16.9375 114.3125 C16.04272949 114.97934814 16.04272949 114.97934814 15.12988281 115.65966797 C9.70924006 119.87356884 6.26501277 124.74126697 2.671875 130.54296875 C2.12015625 131.35378906 1.5684375 132.16460937 1 133 C0.34 133 -0.32 133 -1 133 C-2.42350187 131.02575639 -3.74994969 129.04597665 -5.0625 127 C-9.03878503 121.02950981 -13.38751207 116.50199567 -19 112 C-30.84679663 102.07251679 -38.57221944 92.63983274 -41 77 C-42.49440625 59.63702567 -38.66245838 42.28208689 -27.3359375 28.6171875 C-24.36570941 25.26817132 -21.19599328 22.13164442 -18 19 C-16.66533533 17.66799933 -15.33205925 16.3346062 -14 15 C-12.00355902 12.99974493 -10.00449126 11.00328316 -7.98803711 9.02319336 C-5.07909409 6.15758079 -2.30868117 3.39113973 0 0 Z M0 19 C-1.22149091 20.25957096 -2.40279315 21.55832273 -3.5625 22.875 C-4.52349609 23.95394531 -4.52349609 23.95394531 -5.50390625 25.0546875 C-7.20321128 26.85521342 -7.20321128 26.85521342 -7 29 C-7.66 29 -8.32 29 -9 29 C-20.17880628 39.55940013 -28.63841792 53.35767079 -29.375 68.875 C-29.06472493 81.38296387 -21.76094361 91.89528876 -13.015625 100.2734375 C-9.00473574 103.70912171 -4.4205893 106.8677905 1 107 C8.73365829 105.16489464 13.46919373 100.5215108 19 95 C19.59167969 94.41992188 20.18335938 93.83984375 20.79296875 93.2421875 C28.08394584 85.48263861 30.75004476 76.87430324 30.59155273 66.41845703 C30.0212741 55.16579421 25.42028615 46.2827643 18 38 C17.28457031 37.18917969 16.56914062 36.37835938 15.83203125 35.54296875 C14.32623919 33.85575596 12.81065621 32.17722755 11.28515625 30.5078125 C8.31911444 27.25277175 5.4253394 23.93620272 2.53125 20.6171875 C2.0259375 20.08351562 1.520625 19.54984375 1 19 C0.67 19 0.34 19 0 19 Z " fill="inherit" transform="translate(256,229)"></path>
<path xmlns="http://www.w3.org/2000/svg" d="M0 0 C12.40253837 6.41276012 23.2232226 15.48232746 33.91796875 24.37109375 C56.06615006 42.73676673 79.41924291 54.42328539 107.96484375 59.09375 C108.72152344 59.22523438 109.47820312 59.35671875 110.2578125 59.4921875 C123.0434537 61.32224059 136.32334186 60.3700333 148.96484375 58.09375 C151.51840952 63.20088154 149.93275815 68.85593059 148.33984375 74.03125 C143.10763632 88.69252383 132.22991252 99.1928424 118.390625 105.8984375 C94.16448616 116.61230748 68.05785543 117.04586632 43.23388672 107.76660156 C12.08693887 95.2680996 -3.46336704 70.7841814 -16.27319336 41.18579102 C-18.66991341 35.72302971 -21.36482188 30.82007443 -25.03515625 26.09375 C-25.43476562 25.50980469 -25.834375 24.92585938 -26.24609375 24.32421875 C-32.90788618 15.38126709 -45.00147353 9.96471279 -54.609375 4.69921875 C-57.17728769 2.99968233 -58.56123656 1.79268241 -60.03515625 -0.90625 C-60.328125 -3.703125 -60.328125 -3.703125 -60.22265625 -6.65625 C-60.19558594 -7.64109375 -60.16851562 -8.6259375 -60.140625 -9.640625 C-60.10582031 -10.38828125 -60.07101563 -11.1359375 -60.03515625 -11.90625 C-41.29474445 -18.15305393 -16.83088955 -8.37758547 0 0 Z " fill="inherit" transform="translate(96.03515625,318.90625)"></path>
<path xmlns="http://www.w3.org/2000/svg" d="M0 0 C0.27946119 5.49606999 0.35829877 8.41305535 -3 13 C-5.0234375 14.51953125 -5.0234375 14.51953125 -7.375 15.8125 C-8.25929688 16.3178125 -9.14359375 16.823125 -10.0546875 17.34375 C-11.02664063 17.8903125 -11.99859375 18.436875 -13 19 C-30.83852105 29.29313195 -41.7706203 40.83853125 -49.9375 59.8125 C-54.26688729 69.5029264 -58.69329079 78.44501237 -65 87 C-66.07314453 88.46566406 -66.07314453 88.46566406 -67.16796875 89.9609375 C-82.01638393 109.14561552 -105.04043191 121.29874231 -128.953125 124.625 C-151.89753311 127.10180857 -175.32028126 123.30165966 -194 109 C-203.83282663 100.48845944 -211.22353655 90.1433241 -212.24609375 76.78515625 C-212.24945166 74.17606165 -212.18439292 71.60198898 -212 69 C-211.13761719 69.144375 -210.27523438 69.28875 -209.38671875 69.4375 C-175.33289388 74.61569512 -139.06466634 67.49789395 -110.76708984 47.31298828 C-106.09471615 43.84130747 -101.62444032 40.11574967 -97.140625 36.40625 C-76.658389 19.48360487 -28.2080491 -17.68265764 0 0 Z " fill="inherit" transform="translate(479,308)"></path>
<path xmlns="http://www.w3.org/2000/svg" d="M0 0 C7.0765787 -0.35359508 12.96314434 0.44452486 19.6875 2.625 C20.55181641 2.89715332 21.41613281 3.16930664 22.30664062 3.44970703 C34.95763622 7.50541238 46.23022785 12.098156 57 20 C56.67 20.66 56.34 21.32 56 22 C38.53927595 22.62691429 20.03008472 21.4655254 6.375 9.3125 C4.89985599 7.89225618 3.43789427 6.45794459 2 5 C1.34 4.34 0.68 3.68 0 3 C0 2.01 0 1.02 0 0 Z " fill="inherit" transform="translate(164,348)"></path>
<path xmlns="http://www.w3.org/2000/svg" d="M0 0 C-0.8125 2.4375 -0.8125 2.4375 -2 5 C-2.99 5.33 -3.98 5.66 -5 6 C-5.33 6.99 -5.66 7.98 -6 9 C-20.61600798 20.81894829 -38.89500628 22.49527338 -57 22 C-57 21.01 -57 20.02 -57 19 C-47.57648608 11.08975109 -35.51302803 7.65211102 -24 4 C-22.6795747 3.57065926 -21.35925152 3.14100424 -20.0390625 2.7109375 C-6.28542557 -1.66378912 -6.28542557 -1.66378912 0 0 Z " fill="inherit" transform="translate(350,348)"></path>
</g></svg><svg id="name" viewBox="0 0 207.13800048828125 36.43199920654297" width="207" height="36.40772730246108" x="70" y="4" data-v-8d8ae3dd="" style="fill: rgba(51, 76, 148, 0.83);"><rect x="0" y="0" width="100%" height="100%" fill="none" data-v-8d8ae3dd=""></rect><g data-v-8d8ae3dd=""><path xmlns="http://www.w3.org/2000/svg" d="M25.12 35.88L0 35.88L0 31.51L17.80 7.54L18.49 8.33L4.51 8.33L6.03 7.59L4.97 12.79L1.06 12.79L1.06 3.50L24.98 3.50L24.98 7.87L7.22 32.06L6.99 31.05L21.67 31.05L20.29 32.02L21.21 26.59L25.16 26.59L25.12 35.88ZM39.51 36.43L39.51 36.43Q36.16 36.43 33.63 35.03Q31.10 33.63 29.69 30.84Q28.29 28.06 28.29 24.06L28.29 24.06Q28.29 19.92 29.79 16.95Q31.28 13.98 33.99 12.37Q36.71 10.76 40.39 10.76L40.39 10.76Q43.98 10.76 46.23 12.19Q48.48 13.62 49.54 16.08Q50.60 18.54 50.60 21.62L50.60 21.62Q50.60 22.40 50.53 23.18Q50.46 23.97 50.32 24.84L50.32 24.84L33.49 24.84L33.49 21.02L44.80 21.02L43.98 21.62Q44.02 19.78 43.63 18.38Q43.24 16.97 42.34 16.19Q41.45 15.41 39.88 15.41L39.88 15.41Q38.09 15.41 36.98 16.45Q35.88 17.48 35.40 19.23Q34.91 20.98 34.91 23.14L34.91 23.14Q34.91 25.58 35.51 27.51Q36.11 29.44 37.47 30.54Q38.82 31.65 41.03 31.65L41.03 31.65Q42.60 31.65 44.41 31.07Q46.23 30.50 48.21 29.35L48.21 29.35L50.37 32.80Q47.70 34.64 44.92 35.54Q42.14 36.43 39.51 36.43ZM65.73 35.88L53.45 35.88L53.45 32.57L57.32 31.46L56.53 32.38L56.53 14.86L57.32 15.92L53.45 14.77L53.45 11.45L61.55 11.09L62.38 15.50L61.55 15.18Q63.76 12.93 66.24 11.85Q68.72 10.76 70.98 10.76L70.98 10.76Q74.11 10.76 76.18 12.72Q78.25 14.67 78.20 18.63L78.20 18.63L78.20 32.38L77.60 31.46L81.28 32.57L81.28 35.88L69 35.88L69 32.57L72.50 31.56L71.76 32.52L71.76 20.01Q71.76 17.76 70.77 16.70Q69.78 15.64 68.17 15.64L68.17 15.64Q66.93 15.64 65.46 16.33Q63.99 17.02 62.56 18.40L62.56 18.40L62.97 17.43L62.97 32.52L62.38 31.56L65.73 32.57L65.73 35.88ZM106.21 36.43L106.21 36.43Q101.84 36.43 98.65 34.57Q95.45 32.71 93.70 29.07Q91.95 25.44 91.95 20.10L91.95 20.10Q91.95 15.82 93.06 12.60Q94.16 9.38 96.19 7.25Q98.21 5.11 100.99 4.03Q103.78 2.94 107.18 2.94L107.18 2.94Q110.54 2.94 113.23 4.00Q115.92 5.06 117.83 7.08Q119.74 9.11 120.80 12.12Q121.85 15.13 121.85 19.09L121.85 19.09Q121.85 24.47 119.90 28.36Q117.94 32.25 114.45 34.34Q110.95 36.43 106.21 36.43ZM106.72 31.37L106.72 31.37Q109.02 31.37 110.81 30.25Q112.61 29.12 113.69 26.47Q114.77 23.83 114.77 19.37L114.77 19.37Q114.77 15.23 113.78 12.72Q112.79 10.21 111.04 9.11Q109.30 8.00 106.90 8.00L106.90 8.00Q104.60 8.00 102.81 9.11Q101.02 10.21 100.03 12.79Q99.04 15.36 99.04 19.87L99.04 19.87Q99.04 24.01 99.96 26.52Q100.88 29.03 102.60 30.20Q104.33 31.37 106.72 31.37ZM145.04 18.31L145.04 32.61L144.16 31.33L148.12 32.57L148.12 35.83L140.07 36.25L139.20 31.83L139.66 31.97Q137.82 34.22 135.65 35.33Q133.49 36.43 131.19 36.43L131.19 36.43Q128.25 36.43 126.32 34.55Q124.38 32.66 124.38 29.12L124.38 29.12Q124.38 26.50 125.51 24.96Q126.64 23.41 128.80 22.72Q130.96 22.03 134.04 22.03L134.04 22.03L139.06 22.03L138.60 22.54L138.60 19.50Q138.60 17.34 137.56 16.42Q136.53 15.50 134.55 15.50L134.55 15.50Q133.58 15.50 132.48 15.69Q131.38 15.87 130.09 16.24L130.09 16.24L130.73 15.55L130.13 19.27L126.13 19.27L125.76 12.56Q128.89 11.64 131.49 11.20Q134.09 10.76 136.25 10.76L136.25 10.76Q140.53 10.76 142.78 12.60Q145.04 14.44 145.04 18.31L145.04 18.31ZM130.87 28.47L130.87 28.47Q130.87 30.18 131.68 30.98Q132.48 31.79 133.72 31.79L133.72 31.79Q134.87 31.79 136.25 31.07Q137.63 30.36 138.87 29.12L138.87 29.12L138.60 30.22L138.60 24.98L139.06 25.44L135.10 25.44Q132.71 25.44 131.79 26.17Q130.87 26.91 130.87 28.47ZM157.09 17.53L157.09 17.53Q157.09 18.58 158.01 19.23Q158.93 19.87 160.38 20.33Q161.83 20.79 163.46 21.30Q165.09 21.80 166.54 22.61Q167.99 23.41 168.91 24.75Q169.83 26.08 169.83 28.20L169.83 28.20Q169.83 30.91 168.36 32.75Q166.89 34.59 164.36 35.51Q161.83 36.43 158.65 36.43L158.65 36.43Q156.81 36.43 154.77 36.11Q152.72 35.79 150.56 35.24L150.56 35.24L150.83 28.29L154.88 28.29L155.39 32.34L154.84 31.56Q155.76 31.83 156.86 31.99Q157.96 32.15 158.79 32.15L158.79 32.15Q159.99 32.15 161.02 31.83Q162.06 31.51 162.72 30.89Q163.39 30.27 163.39 29.30L163.39 29.30Q163.39 28.20 162.47 27.55Q161.55 26.91 160.10 26.45Q158.65 25.99 157.07 25.48Q155.48 24.98 154.03 24.15Q152.58 23.32 151.66 21.94Q150.74 20.56 150.74 18.35L150.74 18.35Q150.74 15.69 152.08 14.01Q153.41 12.33 155.64 11.55Q157.87 10.76 160.54 10.76L160.54 10.76Q162.43 10.76 164.54 11.11Q166.66 11.45 168.87 12.10L168.87 12.10L168.64 18.26L164.54 18.26L163.81 14.63L164.68 15.59Q162.52 15.00 160.86 15.00L160.86 15.00Q159.16 15.00 158.13 15.66Q157.09 16.33 157.09 17.53ZM182.21 11.13L182.21 32.11L181.75 31.56L185.29 32.57L185.29 35.88L172.68 35.88L172.68 32.57L176.23 31.56L175.77 32.11L175.77 15.32L176.18 15.73L172.68 14.77L172.68 11.45L182.21 11.13ZM178.80 7.54L178.80 7.54Q177.10 7.54 176.06 6.58Q175.03 5.61 175.03 3.82L175.03 3.82Q175.03 1.89 176.11 0.94Q177.19 0 178.85 0L178.85 0Q180.46 0 181.52 0.94Q182.57 1.89 182.57 3.77L182.57 3.77Q182.57 5.66 181.49 6.60Q180.41 7.54 178.80 7.54ZM194.40 17.53L194.40 17.53Q194.40 18.58 195.32 19.23Q196.24 19.87 197.69 20.33Q199.13 20.79 200.77 21.30Q202.40 21.80 203.85 22.61Q205.30 23.41 206.22 24.75Q207.14 26.08 207.14 28.20L207.14 28.20Q207.14 30.91 205.67 32.75Q204.19 34.59 201.66 35.51Q199.13 36.43 195.96 36.43L195.96 36.43Q194.12 36.43 192.07 36.11Q190.03 35.79 187.86 35.24L187.86 35.24L188.14 28.29L192.19 28.29L192.69 32.34L192.14 31.56Q193.06 31.83 194.17 31.99Q195.27 32.15 196.10 32.15L196.10 32.15Q197.29 32.15 198.33 31.83Q199.36 31.51 200.03 30.89Q200.70 30.27 200.70 29.30L200.70 29.30Q200.70 28.20 199.78 27.55Q198.86 26.91 197.41 26.45Q195.96 25.99 194.37 25.48Q192.79 24.98 191.34 24.15Q189.89 23.32 188.97 21.94Q188.05 20.56 188.05 18.35L188.05 18.35Q188.05 15.69 189.38 14.01Q190.72 12.33 192.95 11.55Q195.18 10.76 197.85 10.76L197.85 10.76Q199.73 10.76 201.85 11.11Q203.96 11.45 206.17 12.10L206.17 12.10L205.94 18.26L201.85 18.26L201.11 14.63L201.99 15.59Q199.82 15.00 198.17 15.00L198.17 15.00Q196.47 15.00 195.43 15.66Q194.40 16.33 194.40 17.53Z"></path></g></svg><svg id="slogan" viewBox="0 0 192.66000366210938 20.15999984741211" width="192" height="20.09093686872167" x="70" y="44.40772730246108" data-v-8d8ae3dd="" style="fill: rgba(222, 124, 38, 0.73);"><rect x="0" y="0" width="100%" height="100%" fill="none" data-v-8d8ae3dd=""></rect><g data-v-8d8ae3dd=""><path xmlns="http://www.w3.org/2000/svg" d="M15.02 3.02L15.02 1.58L20.28 1.48L20.28 2.92L18.46 3.44L19.12 2.70L15.50 15.58L12.80 15.58L9.80 4.94L10.32 4.94L7.20 15.58L4.52 15.58L1.20 2.94L1.48 3.40L0 3.02L0 1.58L5.52 1.48L5.52 2.92L3.78 3.48L4.12 2.94L6.38 13L5.80 12.98L8.94 1.56L11.58 1.48L14.62 12.94L14.04 12.96L16.60 2.94L16.84 3.46L15.02 3.02ZM24.64 15.80L24.64 15.80Q23.18 15.80 22.08 15.19Q20.98 14.58 20.37 13.37Q19.76 12.16 19.76 10.42L19.76 10.42Q19.76 8.62 20.41 7.33Q21.06 6.04 22.24 5.34Q23.42 4.64 25.02 4.64L25.02 4.64Q26.58 4.64 27.56 5.26Q28.54 5.88 29.00 6.95Q29.46 8.02 29.46 9.36L29.46 9.36Q29.46 9.70 29.43 10.04Q29.40 10.38 29.34 10.76L29.34 10.76L22.02 10.76L22.02 9.10L26.94 9.10L26.58 9.36Q26.60 8.56 26.43 7.95Q26.26 7.34 25.87 7Q25.48 6.66 24.80 6.66L24.80 6.66Q24.02 6.66 23.54 7.11Q23.06 7.56 22.85 8.32Q22.64 9.08 22.64 10.02L22.64 10.02Q22.64 11.08 22.90 11.92Q23.16 12.76 23.75 13.24Q24.34 13.72 25.30 13.72L25.30 13.72Q25.98 13.72 26.77 13.47Q27.56 13.22 28.42 12.72L28.42 12.72L29.36 14.22Q28.20 15.02 26.99 15.41Q25.78 15.80 24.64 15.80ZM34.56 0L34.56 13.92L34.36 13.68L35.90 14.12L35.90 15.56L30.44 15.56L30.44 14.12L31.98 13.68L31.76 13.92L31.76 1.82L31.94 2.02L30.44 1.60L30.44 0.16L34.56 0ZM41.68 15.80L41.68 15.80Q40.30 15.80 39.19 15.15Q38.08 14.50 37.44 13.28Q36.80 12.06 36.80 10.32L36.80 10.32Q36.80 8.74 37.26 7.66Q37.72 6.58 38.50 5.91Q39.28 5.24 40.24 4.94Q41.20 4.64 42.22 4.64L42.22 4.64Q43.18 4.64 44.16 4.88Q45.14 5.12 45.76 5.42L45.76 5.42L45.68 8.36L43.88 8.36L43.58 6.72L43.80 6.88Q43.50 6.76 43.07 6.70Q42.64 6.64 42.28 6.64L42.28 6.64Q41.42 6.64 40.85 7.07Q40.28 7.50 40.00 8.29Q39.72 9.08 39.72 10.16L39.72 10.16Q39.72 11.32 40.04 12.12Q40.36 12.92 40.95 13.33Q41.54 13.74 42.32 13.74L42.32 13.74Q42.94 13.74 43.68 13.48Q44.42 13.22 45.22 12.70L45.22 12.70L46.16 14.12Q45.04 14.98 43.92 15.39Q42.80 15.80 41.68 15.80ZM52.12 4.64L52.12 4.64Q54.48 4.64 55.80 6.04Q57.12 7.44 57.12 10.02L57.12 10.02Q57.12 11.82 56.48 13.11Q55.84 14.40 54.64 15.10Q53.44 15.80 51.76 15.80L51.76 15.80Q49.40 15.80 48.11 14.40Q46.82 13 46.82 10.42L46.82 10.42Q46.82 8.62 47.45 7.33Q48.08 6.04 49.26 5.34Q50.44 4.64 52.12 4.64ZM51.98 6.64L51.98 6.64Q50.84 6.64 50.28 7.53Q49.72 8.42 49.72 10.28L49.72 10.28Q49.72 12.14 50.26 12.97Q50.80 13.80 51.90 13.80L51.90 13.80Q52.70 13.80 53.20 13.40Q53.70 13 53.96 12.18Q54.22 11.36 54.22 10.16L54.22 10.16Q54.22 8.34 53.66 7.49Q53.10 6.64 51.98 6.64ZM68.62 6.50L68.62 6.50L68.22 6.60Q69.18 5.62 70.26 5.13Q71.34 4.64 72.32 4.64L72.32 4.64Q73.58 4.64 74.43 5.47Q75.28 6.30 75.28 8.02L75.28 8.02L75.28 14.04L75.02 13.64L76.62 14.12L76.62 15.56L71.36 15.56L71.36 14.12L72.82 13.68L72.48 14.10L72.48 8.64Q72.48 7.68 72.09 7.22Q71.70 6.76 71.08 6.76L71.08 6.76Q70.56 6.76 69.92 7.08Q69.28 7.40 68.64 8.02L68.64 8.02L68.84 7.40Q68.88 7.56 68.88 7.69Q68.88 7.82 68.88 7.92L68.88 7.92L68.88 14.04L68.62 13.64L70.02 14.12L70.02 15.56L64.94 15.56L64.94 14.12L66.40 13.68L66.08 14.10L66.08 8.64Q66.08 7.68 65.68 7.22Q65.28 6.76 64.68 6.76L64.68 6.76Q64.16 6.76 63.52 7.06Q62.88 7.36 62.28 7.96L62.28 7.96L62.46 7.54L62.46 14.10L62.20 13.68L63.60 14.12L63.60 15.56L58.32 15.56L58.32 14.12L60 13.64L59.66 14.04L59.66 6.42L60 6.88L58.32 6.38L58.32 4.94L61.84 4.78L62.20 6.70L61.84 6.56Q62.78 5.62 63.85 5.13Q64.92 4.64 65.90 4.64L65.90 4.64Q66.82 4.64 67.54 5.09Q68.26 5.54 68.62 6.50ZM82.32 15.80L82.32 15.80Q80.86 15.80 79.76 15.19Q78.66 14.58 78.05 13.37Q77.44 12.16 77.44 10.42L77.44 10.42Q77.44 8.62 78.09 7.33Q78.74 6.04 79.92 5.34Q81.10 4.64 82.70 4.64L82.70 4.64Q84.26 4.64 85.24 5.26Q86.22 5.88 86.68 6.95Q87.14 8.02 87.14 9.36L87.14 9.36Q87.14 9.70 87.11 10.04Q87.08 10.38 87.02 10.76L87.02 10.76L79.70 10.76L79.70 9.10L84.62 9.10L84.26 9.36Q84.28 8.56 84.11 7.95Q83.94 7.34 83.55 7Q83.16 6.66 82.48 6.66L82.48 6.66Q81.70 6.66 81.22 7.11Q80.74 7.56 80.53 8.32Q80.32 9.08 80.32 10.02L80.32 10.02Q80.32 11.08 80.58 11.92Q80.84 12.76 81.43 13.24Q82.02 13.72 82.98 13.72L82.98 13.72Q83.66 13.72 84.45 13.47Q85.24 13.22 86.10 12.72L86.10 12.72L87.04 14.22Q85.88 15.02 84.67 15.41Q83.46 15.80 82.32 15.80ZM95.88 15.80L95.88 15.80Q94.50 15.80 93.79 14.97Q93.08 14.14 93.08 12.50L93.08 12.50L93.08 6.38L93.44 6.74L91.52 6.74L91.52 5.24L93.48 4.78L93.08 5.26L93.08 2.54L95.90 2.04L95.90 5.26L95.60 4.88L98.64 4.88L98.60 6.74L95.60 6.74L95.90 6.38L95.90 12.12Q95.90 12.98 96.18 13.36Q96.46 13.74 97.02 13.74L97.02 13.74Q97.34 13.74 97.73 13.63Q98.12 13.52 98.58 13.34L98.58 13.34L99.10 14.88Q97.42 15.80 95.88 15.80ZM104.88 4.64L104.88 4.64Q107.24 4.64 108.56 6.04Q109.88 7.44 109.88 10.02L109.88 10.02Q109.88 11.82 109.24 13.11Q108.60 14.40 107.40 15.10Q106.20 15.80 104.52 15.80L104.52 15.80Q102.16 15.80 100.87 14.40Q99.58 13 99.58 10.42L99.58 10.42Q99.58 8.62 100.21 7.33Q100.84 6.04 102.02 5.34Q103.20 4.64 104.88 4.64ZM104.74 6.64L104.74 6.64Q103.60 6.64 103.04 7.53Q102.48 8.42 102.48 10.28L102.48 10.28Q102.48 12.14 103.02 12.97Q103.56 13.80 104.66 13.80L104.66 13.80Q105.46 13.80 105.96 13.40Q106.46 13 106.72 12.18Q106.98 11.36 106.98 10.16L106.98 10.16Q106.98 8.34 106.42 7.49Q105.86 6.64 104.74 6.64ZM118.58 15.80L118.58 15.80Q117.20 15.80 116.49 14.97Q115.78 14.14 115.78 12.50L115.78 12.50L115.78 6.38L116.14 6.74L114.22 6.74L114.22 5.24L116.18 4.78L115.78 5.26L115.78 2.54L118.60 2.04L118.60 5.26L118.30 4.88L121.34 4.88L121.30 6.74L118.30 6.74L118.60 6.38L118.60 12.12Q118.60 12.98 118.88 13.36Q119.16 13.74 119.72 13.74L119.72 13.74Q120.04 13.74 120.43 13.63Q120.82 13.52 121.28 13.34L121.28 13.34L121.80 14.88Q120.12 15.80 118.58 15.80ZM127.54 15.56L122.22 15.56L122.22 14.12L123.88 13.64L123.54 14.04L123.54 1.64L123.88 2.08L122.22 1.60L122.22 0.16L126.34 0L126.34 6.70L125.72 6.56Q126.68 5.58 127.76 5.11Q128.84 4.64 129.82 4.64L129.82 4.64Q130.72 4.64 131.44 5.02Q132.16 5.40 132.57 6.15Q132.98 6.90 132.96 8.04L132.96 8.04L132.96 14.04L132.70 13.64L134.30 14.12L134.30 15.56L128.96 15.56L128.96 14.12L130.50 13.68L130.16 14.10L130.16 8.64Q130.18 7.68 129.74 7.22Q129.30 6.76 128.60 6.76L128.60 6.76Q128.06 6.76 127.42 7.06Q126.78 7.36 126.14 7.96L126.14 7.96L126.34 7.54L126.34 14.10L126.08 13.68L127.54 14.12L127.54 15.56ZM140.00 15.80L140.00 15.80Q138.54 15.80 137.44 15.19Q136.34 14.58 135.73 13.37Q135.12 12.16 135.12 10.42L135.12 10.42Q135.12 8.62 135.77 7.33Q136.42 6.04 137.60 5.34Q138.78 4.64 140.38 4.64L140.38 4.64Q141.94 4.64 142.92 5.26Q143.90 5.88 144.36 6.95Q144.82 8.02 144.82 9.36L144.82 9.36Q144.82 9.70 144.79 10.04Q144.76 10.38 144.70 10.76L144.70 10.76L137.38 10.76L137.38 9.10L142.30 9.10L141.94 9.36Q141.96 8.56 141.79 7.95Q141.62 7.34 141.23 7Q140.84 6.66 140.16 6.66L140.16 6.66Q139.38 6.66 138.90 7.11Q138.42 7.56 138.21 8.32Q138.00 9.08 138.00 10.02L138.00 10.02Q138.00 11.08 138.26 11.92Q138.52 12.76 139.11 13.24Q139.70 13.72 140.66 13.72L140.66 13.72Q141.34 13.72 142.13 13.47Q142.92 13.22 143.78 12.72L143.78 12.72L144.72 14.22Q143.56 15.02 142.35 15.41Q141.14 15.80 140.00 15.80ZM155.18 20.16L149.48 20.16L149.48 18.72L151.18 18.16L150.82 18.64L150.82 6.50L151.14 6.88L149.48 6.38L149.48 4.94L153 4.78L153.32 6.52L153 6.36Q153.94 5.52 154.83 5.08Q155.72 4.64 156.68 4.64L156.68 4.64Q157.84 4.64 158.72 5.25Q159.60 5.86 160.11 7.05Q160.62 8.24 160.62 9.96L160.62 9.96Q160.62 11.90 159.96 13.20Q159.30 14.50 158.11 15.15Q156.92 15.80 155.34 15.80L155.34 15.80Q154.86 15.80 154.34 15.73Q153.82 15.66 153.26 15.54L153.26 15.54L153.62 15.22L153.62 18.64L153.32 18.22L155.18 18.72L155.18 20.16ZM154.98 13.82L154.98 13.82Q156.40 13.82 157.05 12.86Q157.70 11.90 157.70 10.24L157.70 10.24Q157.70 9.14 157.44 8.35Q157.18 7.56 156.72 7.13Q156.26 6.70 155.58 6.70L155.58 6.70Q155.06 6.70 154.48 6.98Q153.90 7.26 153.28 7.84L153.28 7.84L153.62 7.10L153.62 14.08L153.28 13.54Q154.22 13.82 154.98 13.82ZM170.88 7.92L170.88 14.14L170.50 13.58L172.22 14.12L172.22 15.54L168.72 15.72L168.34 13.80L168.54 13.86Q167.74 14.84 166.80 15.32Q165.86 15.80 164.86 15.80L164.86 15.80Q163.58 15.80 162.74 14.98Q161.90 14.16 161.90 12.62L161.90 12.62Q161.90 11.48 162.39 10.81Q162.88 10.14 163.82 9.84Q164.76 9.54 166.10 9.54L166.10 9.54L168.28 9.54L168.08 9.76L168.08 8.44Q168.08 7.50 167.63 7.10Q167.18 6.70 166.32 6.70L166.32 6.70Q165.90 6.70 165.42 6.78Q164.94 6.86 164.38 7.02L164.38 7.02L164.66 6.72L164.40 8.34L162.66 8.34L162.50 5.42Q163.86 5.02 164.99 4.83Q166.12 4.64 167.06 4.64L167.06 4.64Q168.92 4.64 169.90 5.44Q170.88 6.24 170.88 7.92L170.88 7.92ZM164.72 12.34L164.72 12.34Q164.72 13.08 165.07 13.43Q165.42 13.78 165.96 13.78L165.96 13.78Q166.46 13.78 167.06 13.47Q167.66 13.16 168.20 12.62L168.20 12.62L168.08 13.10L168.08 10.82L168.28 11.02L166.56 11.02Q165.52 11.02 165.12 11.34Q164.72 11.66 164.72 12.34ZM176.94 15.80L176.94 15.80Q175.56 15.80 174.85 14.97Q174.14 14.14 174.14 12.50L174.14 12.50L174.14 6.38L174.50 6.74L172.58 6.74L172.58 5.24L174.54 4.78L174.14 5.26L174.14 2.54L176.96 2.04L176.96 5.26L176.66 4.88L179.70 4.88L179.66 6.74L176.66 6.74L176.96 6.38L176.96 12.12Q176.96 12.98 177.24 13.36Q177.52 13.74 178.08 13.74L178.08 13.74Q178.40 13.74 178.79 13.63Q179.18 13.52 179.64 13.34L179.64 13.34L180.16 14.88Q178.48 15.80 176.94 15.80ZM185.90 15.56L180.58 15.56L180.58 14.12L182.24 13.64L181.90 14.04L181.90 1.64L182.24 2.08L180.58 1.60L180.58 0.16L184.70 0L184.70 6.70L184.08 6.56Q185.04 5.58 186.12 5.11Q187.20 4.64 188.18 4.64L188.18 4.64Q189.08 4.64 189.80 5.02Q190.52 5.40 190.93 6.15Q191.34 6.90 191.32 8.04L191.32 8.04L191.32 14.04L191.06 13.64L192.66 14.12L192.66 15.56L187.32 15.56L187.32 14.12L188.86 13.68L188.52 14.10L188.52 8.64Q188.54 7.68 188.10 7.22Q187.66 6.76 186.96 6.76L186.96 6.76Q186.42 6.76 185.78 7.06Q185.14 7.36 184.50 7.96L184.50 7.96L184.70 7.54L184.70 14.10L184.44 13.68L185.90 14.12L185.90 15.56Z"></path></g></svg></svg>